<svg xmlns="http://www.w3.org/2000/svg" version="1.1" xmlns:xlink="http://www.w3.org/1999/xlink" xmlns:svgjs="http://svgjs.dev/svgjs" width="1500" height="1500" viewBox="0 0 1500 1500"><g transform="matrix(1,0,0,1,-0.323615160350073,-0.3236151603499593)"><svg viewBox="0 0 343 343" data-background-color="#ffffff" preserveAspectRatio="xMidYMid meet" height="1500" width="1500" xmlns="http://www.w3.org/2000/svg" xmlns:xlink="http://www.w3.org/1999/xlink"><g id="tight-bounds" transform="matrix(1,0,0,1,0.0740000000000407,0.07400000000001228)"><svg viewBox="0 0 342.85155851775386 342.85155851775386" height="342.85155851775386" width="342.85155851775386"><rect width="342.852" height="342.852" fill="url(#2c815fa4-ee49-4cef-b5c1-a8f50f82be5a)" mask="url(#36aa316a-f7f5-4872-86c0-aa054906f742)" data-fill-palette-color="tertiary"></rect><g><svg></svg></g><g><svg viewBox="0 0 342.85155851775386 342.85155851775386" height="342.85155851775386" width="342.85155851775386"><g><path d="M0 171.426c0-94.676 76.75-171.426 171.426-171.426 94.676 0 171.426 76.75 171.426 171.426 0 94.676-76.75 171.426-171.426 171.426-94.676 0-171.426-76.75-171.426-171.426zM171.426 332.258c88.825 0 160.833-72.007 160.832-160.832 0-88.825-72.007-160.833-160.832-160.833-88.825 0-160.833 72.007-160.833 160.833 0 88.825 72.007 160.833 160.833 160.832z" data-fill-palette-color="tertiary" fill="url(#2c815fa4-ee49-4cef-b5c1-a8f50f82be5a)" stroke="transparent"></path><ellipse rx="164.56874808852186" ry="164.56874808852186" cx="171.42577925887693" cy="171.42577925887693" fill="url(#2c815fa4-ee49-4cef-b5c1-a8f50f82be5a)" stroke="transparent" stroke-width="0" fill-opacity="1" data-fill-palette-color="tertiary"></ellipse></g><g transform="matrix(1,0,0,1,64.84655864529837,112.69301589932275)"><svg viewBox="0 0 213.1584412271571 117.46552671910837" height="117.46552671910837" width="213.1584412271571"><g><svg viewBox="0 0 213.1584412271571 117.46552671910837" height="117.46552671910837" width="213.1584412271571"><g><svg viewBox="0 0 213.1584412271571 117.46552671910837" height="117.46552671910837" width="213.1584412271571"><g><svg viewBox="0 0 213.1584412271571 117.46552671910837" height="117.46552671910837" width="213.1584412271571"><g id="textblocktransform"><svg viewBox="0 0 213.1584412271571 117.46552671910837" height="117.46552671910837" width="213.1584412271571" id="textblock"><g><svg viewBox="0 0 213.1584412271571 117.46552671910837" height="117.46552671910837" width="213.1584412271571"><g transform="matrix(1,0,0,1,0,0)"><svg width="213.1584412271571" viewBox="2.98 -35.99 68.36 37.67" height="117.46552671910837" data-palette-color="#ffffff"><path d="M17.26-15.48L16.06-1.95Q16.04-1.73 15.98-1.53 15.92-1.32 15.65-1.2L15.65-1.2Q15.55-1.15 14.69-0.84 13.82-0.54 12.68-0.13 11.55 0.27 10.44 0.67 9.33 1.07 8.74 1.29L8.74 1.29Q8.45 1.42 8.02 1.55 7.59 1.68 7.18 1.68L7.18 1.68Q6.84 1.68 6.58 1.51 6.32 1.34 6.32 0.88L6.32 0.88Q6.32-0.2 6.38-1.09 6.45-1.98 6.54-2.95 6.64-3.93 6.75-5.11 6.86-6.3 6.96-7.93L6.96-7.93Q7.08-10.08 7.23-12.07 7.37-14.06 7.52-16.21L7.52-16.21 7.86-20.39Q7.93-21.41 8.01-22.47 8.08-23.54 8.15-24.66L8.15-24.66 8.42-27.64Q8.42-27.69 8.28-27.69L8.28-27.69Q8.08-27.69 7.62-27.6 7.15-27.51 6.52-27.39 5.88-27.27 5.11-27.14 4.35-27 3.54-26.88L3.54-26.88Q3.34-26.88 3.16-26.97 2.98-27.05 2.98-27.17L2.98-27.17Q2.98-27.27 3.03-27.32L3.03-27.32 6.98-34.23Q8.33-34.52 9.88-34.83 11.43-35.13 13.21-35.38 14.99-35.62 16.99-35.78 18.99-35.94 21.24-35.94L21.24-35.94Q23.78-35.89 26.18-35.44 28.59-34.99 30.46-33.92 32.32-32.86 33.46-31.04 34.59-29.22 34.59-26.44L34.59-26.44Q34.59-24.9 34.07-23.61 33.54-22.31 32.73-21.28 31.91-20.24 30.93-19.45 29.96-18.65 29.06-18.09 28.17-17.53 27.49-17.2 26.81-16.87 26.56-16.77L26.56-16.77Q26.56-16.72 26.6-16.65 26.64-16.58 26.76-16.37 26.88-16.16 27.11-15.78 27.34-15.41 27.71-14.75L27.71-14.75Q28.1-14.16 28.64-13.18 29.17-12.21 29.92-10.88 30.66-9.55 31.64-7.91 32.62-6.27 33.89-4.39L33.89-4.39Q34.3-4.03 34.84-3.94 35.38-3.86 35.84-3.85 36.3-3.83 36.62-3.8 36.94-3.76 36.94-3.49L36.94-3.49Q36.94-3.3 36.54-3.04 36.13-2.78 35.6-2.51 35.06-2.25 34.51-2 33.96-1.76 33.67-1.61L33.67-1.61Q33.08-1.32 32.45-1.05 31.81-0.78 31.08-0.45 30.35-0.12 29.46 0.32 28.56 0.76 27.44 1.37L27.44 1.37Q27.15 1.54 26.89 1.6 26.64 1.66 26.42 1.66L26.42 1.66Q25.98 1.66 25.66 1.45 25.34 1.25 25.12 0.95 24.9 0.66 24.77 0.35 24.63 0.05 24.54-0.15L24.54-0.15 17.26-15.48ZM18.53-28.86L17.55-18.48Q18.8-18.48 20.14-19.12 21.48-19.75 22.58-20.75 23.68-21.75 24.39-23.02 25.1-24.29 25.1-25.59L25.1-25.59Q25.1-29.13 20.85-29.13L20.85-29.13Q20.04-29.13 19.51-29.02 18.97-28.91 18.53-28.86L18.53-28.86ZM52.07-34.94L52.07-34.94Q52.02-34.57 51.98-33.78 51.93-32.98 51.84-31.96 51.76-30.93 51.68-29.77 51.61-28.61 51.52-27.53 51.44-26.44 51.35-25.54 51.27-24.63 51.22-24.1L51.22-24.1 52.46-25.37 55.93-29.66Q56.56-30.47 57.2-31.24 57.83-32.01 58.33-32.63 58.84-33.25 59.15-33.67 59.47-34.08 59.52-34.13L59.52-34.13 70.36-35.03Q70.41-35.06 70.58-35.06L70.58-35.06 70.77-35.06Q71.34-35.06 71.34-34.77L71.34-34.77Q71.34-34.59 71.18-34.36 71.02-34.13 70.7-33.76L70.7-33.76Q70.31-33.3 69.57-32.43 68.82-31.57 67.94-30.53 67.06-29.49 66.12-28.38 65.18-27.27 64.38-26.33 63.57-25.39 63-24.71 62.42-24.02 62.28-23.83L62.28-23.83 60.74-22.36Q59.18-20.87 56.74-18.65L56.74-18.65Q57.49-17.87 58.36-16.96 59.23-16.04 60.02-15.2 60.81-14.36 61.46-13.67 62.11-12.99 62.42-12.65L62.42-12.65 69.97-3.91Q70.09-3.76 70.29-3.66 70.48-3.56 70.68-3.49 70.87-3.42 71.01-3.33 71.14-3.25 71.14-3.13L71.14-3.13Q71.14-2.98 70.82-2.66L70.82-2.66Q70.63-2.47 70.09-2.09 69.55-1.71 68.83-1.27 68.11-0.83 67.28-0.37 66.45 0.1 65.68 0.48 64.91 0.85 64.27 1.1 63.62 1.34 63.28 1.34L63.28 1.34Q62.77 1.34 62.2 0.89 61.64 0.44 60.86-0.48 60.08-1.39 59.01-2.81 57.93-4.22 56.42-6.13L56.42-6.13Q55.54-7.23 54.71-8.29 53.88-9.35 53.15-10.29 52.41-11.23 51.82-11.98 51.22-12.72 50.83-13.18L50.83-13.18Q50.63-12.99 50.41-12.81 50.19-12.62 50-12.43L50-12.43 49.14-1.95Q49.12-1.73 49.06-1.51 49-1.29 48.73-1.2L48.73-1.2 41.82 1.29Q41.55 1.39 41.11 1.54 40.67 1.68 40.26 1.68L40.26 1.68Q39.89 1.68 39.65 1.49 39.4 1.29 39.4 0.78L39.4 0.78Q39.52-0.66 39.71-2.95 39.89-5.25 40.1-8.19 40.31-11.13 40.54-14.61 40.77-18.09 41.04-21.92L41.04-21.92 41.72-32.2Q41.75-32.64 41.77-32.93 41.79-33.23 41.84-33.42 41.89-33.62 42.01-33.72 42.14-33.81 42.38-33.86L42.38-33.86 50.83-35.89Q51.14-35.99 51.49-35.99L51.49-35.99Q51.83-35.99 51.95-35.78 52.07-35.57 52.07-34.94Z" opacity="1" transform="matrix(1,0,0,1,0,0)" fill="#ffffff" class="wordmark-text-0" data-fill-palette-color="quaternary" id="text-0"></path></svg></g></svg></g></svg></g></svg></g><g></g></svg></g></svg></g></svg></g></svg></g><defs></defs><mask id="36aa316a-f7f5-4872-86c0-aa054906f742"><g id="SvgjsG1243"><svg viewBox="0 0 342.85155851775386 342.85155851775386" height="342.85155851775386" width="342.85155851775386"><g><svg></svg></g><g><svg viewBox="0 0 342.85155851775386 342.85155851775386" height="342.85155851775386" width="342.85155851775386"><g><path d="M0 171.426c0-94.676 76.75-171.426 171.426-171.426 94.676 0 171.426 76.75 171.426 171.426 0 94.676-76.75 171.426-171.426 171.426-94.676 0-171.426-76.75-171.426-171.426zM171.426 332.258c88.825 0 160.833-72.007 160.832-160.832 0-88.825-72.007-160.833-160.832-160.833-88.825 0-160.833 72.007-160.833 160.833 0 88.825 72.007 160.833 160.833 160.832z" fill="white" stroke="transparent"></path><ellipse rx="164.56874808852186" ry="164.56874808852186" cx="171.42577925887693" cy="171.42577925887693" fill="white" stroke="transparent" stroke-width="0" fill-opacity="1"></ellipse></g><g transform="matrix(1,0,0,1,64.84655864529837,112.69301589932275)"><svg viewBox="0 0 213.1584412271571 117.46552671910837" height="117.46552671910837" width="213.1584412271571"><g><svg viewBox="0 0 213.1584412271571 117.46552671910837" height="117.46552671910837" width="213.1584412271571"><g><svg viewBox="0 0 213.1584412271571 117.46552671910837" height="117.46552671910837" width="213.1584412271571"><g><svg viewBox="0 0 213.1584412271571 117.46552671910837" height="117.46552671910837" width="213.1584412271571"><g id="SvgjsG1242"><svg viewBox="0 0 213.1584412271571 117.46552671910837" height="117.46552671910837" width="213.1584412271571" id="SvgjsSvg1241"><g><svg viewBox="0 0 213.1584412271571 117.46552671910837" height="117.46552671910837" width="213.1584412271571"><g transform="matrix(1,0,0,1,0,0)"><svg width="213.1584412271571" viewBox="2.98 -35.99 68.36 37.67" height="117.46552671910837" data-palette-color="#ffffff"><path d="M17.26-15.48L16.06-1.95Q16.04-1.73 15.98-1.53 15.92-1.32 15.65-1.2L15.65-1.2Q15.55-1.15 14.69-0.84 13.82-0.54 12.68-0.13 11.55 0.27 10.44 0.67 9.33 1.07 8.74 1.29L8.74 1.29Q8.45 1.42 8.02 1.55 7.59 1.68 7.18 1.68L7.18 1.68Q6.84 1.68 6.58 1.51 6.32 1.34 6.32 0.88L6.32 0.88Q6.32-0.2 6.38-1.09 6.45-1.98 6.54-2.95 6.64-3.93 6.75-5.11 6.86-6.3 6.96-7.93L6.96-7.93Q7.08-10.08 7.23-12.07 7.37-14.06 7.52-16.21L7.52-16.21 7.86-20.39Q7.93-21.41 8.01-22.47 8.08-23.54 8.15-24.66L8.15-24.66 8.42-27.64Q8.42-27.69 8.28-27.69L8.28-27.69Q8.08-27.69 7.62-27.6 7.15-27.51 6.52-27.39 5.88-27.27 5.11-27.14 4.35-27 3.54-26.88L3.54-26.88Q3.34-26.88 3.16-26.97 2.98-27.05 2.98-27.17L2.98-27.17Q2.98-27.27 3.03-27.32L3.03-27.32 6.98-34.23Q8.33-34.52 9.88-34.83 11.43-35.13 13.21-35.38 14.99-35.62 16.99-35.78 18.99-35.94 21.24-35.94L21.24-35.94Q23.78-35.89 26.18-35.44 28.59-34.99 30.46-33.92 32.32-32.86 33.46-31.04 34.59-29.22 34.59-26.44L34.59-26.44Q34.59-24.9 34.07-23.61 33.54-22.31 32.73-21.28 31.91-20.24 30.93-19.45 29.96-18.65 29.06-18.09 28.17-17.53 27.49-17.2 26.81-16.87 26.56-16.77L26.56-16.77Q26.56-16.72 26.6-16.65 26.64-16.58 26.76-16.37 26.88-16.16 27.11-15.78 27.34-15.41 27.71-14.75L27.71-14.75Q28.1-14.16 28.64-13.18 29.17-12.21 29.92-10.88 30.66-9.55 31.64-7.91 32.62-6.27 33.89-4.39L33.89-4.39Q34.3-4.03 34.84-3.94 35.38-3.86 35.84-3.85 36.3-3.83 36.62-3.8 36.94-3.76 36.94-3.49L36.94-3.49Q36.94-3.3 36.54-3.04 36.13-2.78 35.6-2.51 35.06-2.25 34.51-2 33.96-1.76 33.67-1.61L33.67-1.61Q33.08-1.32 32.45-1.05 31.81-0.78 31.08-0.45 30.35-0.12 29.46 0.32 28.56 0.76 27.44 1.37L27.44 1.37Q27.15 1.54 26.89 1.6 26.64 1.66 26.42 1.66L26.42 1.66Q25.98 1.66 25.66 1.45 25.34 1.25 25.12 0.95 24.9 0.66 24.77 0.35 24.63 0.05 24.54-0.15L24.54-0.15 17.26-15.48ZM18.53-28.86L17.55-18.48Q18.8-18.48 20.14-19.12 21.48-19.75 22.58-20.75 23.68-21.75 24.39-23.02 25.1-24.29 25.1-25.59L25.1-25.59Q25.1-29.13 20.85-29.13L20.85-29.13Q20.04-29.13 19.51-29.02 18.97-28.91 18.53-28.86L18.53-28.86ZM52.07-34.94L52.07-34.94Q52.02-34.57 51.98-33.78 51.93-32.98 51.84-31.96 51.76-30.93 51.68-29.77 51.61-28.61 51.52-27.53 51.44-26.44 51.35-25.54 51.27-24.63 51.22-24.1L51.22-24.1 52.46-25.37 55.93-29.66Q56.56-30.47 57.2-31.24 57.83-32.01 58.33-32.63 58.84-33.25 59.15-33.67 59.47-34.08 59.52-34.13L59.52-34.13 70.36-35.03Q70.41-35.06 70.58-35.06L70.58-35.06 70.77-35.06Q71.34-35.06 71.34-34.77L71.34-34.77Q71.34-34.59 71.18-34.36 71.02-34.13 70.7-33.76L70.7-33.76Q70.31-33.3 69.57-32.43 68.82-31.57 67.94-30.53 67.06-29.49 66.12-28.38 65.18-27.27 64.38-26.33 63.57-25.39 63-24.71 62.42-24.02 62.28-23.83L62.28-23.83 60.74-22.36Q59.18-20.87 56.74-18.65L56.74-18.65Q57.49-17.87 58.36-16.96 59.23-16.04 60.02-15.2 60.81-14.36 61.46-13.67 62.11-12.99 62.42-12.65L62.42-12.65 69.97-3.91Q70.09-3.76 70.29-3.66 70.48-3.56 70.68-3.49 70.87-3.42 71.01-3.33 71.14-3.25 71.14-3.13L71.14-3.13Q71.14-2.98 70.82-2.66L70.82-2.66Q70.63-2.47 70.09-2.09 69.55-1.71 68.83-1.27 68.11-0.83 67.28-0.37 66.45 0.1 65.68 0.48 64.91 0.85 64.27 1.1 63.62 1.34 63.28 1.34L63.28 1.34Q62.77 1.34 62.2 0.89 61.64 0.44 60.86-0.48 60.08-1.39 59.01-2.81 57.93-4.22 56.42-6.13L56.42-6.13Q55.54-7.23 54.71-8.29 53.88-9.35 53.15-10.29 52.41-11.23 51.82-11.98 51.22-12.72 50.83-13.18L50.83-13.18Q50.63-12.99 50.41-12.81 50.19-12.62 50-12.43L50-12.43 49.14-1.95Q49.12-1.73 49.06-1.51 49-1.29 48.73-1.2L48.73-1.2 41.82 1.29Q41.55 1.39 41.11 1.54 40.67 1.68 40.26 1.68L40.26 1.68Q39.89 1.68 39.65 1.49 39.4 1.29 39.4 0.78L39.4 0.78Q39.52-0.66 39.71-2.95 39.89-5.25 40.1-8.19 40.31-11.13 40.54-14.61 40.77-18.09 41.04-21.92L41.04-21.92 41.72-32.2Q41.75-32.64 41.77-32.93 41.79-33.23 41.84-33.42 41.89-33.62 42.01-33.72 42.14-33.81 42.38-33.86L42.38-33.86 50.83-35.89Q51.14-35.99 51.49-35.99L51.49-35.99Q51.83-35.99 51.95-35.78 52.07-35.57 52.07-34.94Z" opacity="1" transform="matrix(1,0,0,1,0,0)" fill="black" class="wordmark-text-0" id="SvgjsPath1240"></path></svg></g></svg></g></svg></g></svg></g><g></g></svg></g></svg></g></svg></g></svg></g><defs><mask></mask></defs></svg><rect width="342.85155851775386" height="342.85155851775386" fill="black" stroke="none" visibility="hidden"></rect></g></mask><linearGradient x1="0" x2="1" y1="0.5" y2="0.5" id="2c815fa4-ee49-4cef-b5c1-a8f50f82be5a"><stop stop-color="#f00b51" offset="0"></stop><stop stop-color="#730062" offset="1"></stop></linearGradient></svg><rect width="342.85155851775386" height="342.85155851775386" fill="none" stroke="none" visibility="hidden"></rect></g></svg></g></svg>